<?xml version="1.0" encoding="utf-8"?>
<!-- Generator: Adobe Illustrator 27.0.0, SVG Export Plug-In . SVG Version: 6.00 Build 0)  -->
<svg version="1.1" id="Слой_1" xmlns="http://www.w3.org/2000/svg" xmlns:xlink="http://www.w3.org/1999/xlink" x="0px" y="0px"
	 viewBox="0 0 24 24" style="enable-background:new 0 0 24 24;" xml:space="preserve">
<g>
	<path d="M21.2,17.9H7.6c-0.4,0-0.7-0.3-0.8-0.7l-1.4-10L4.6,2.5C4.4,1.3,3.4,0.4,2.2,0.4H1.1c-0.4,0-0.8,0.4-0.8,0.8
		s0.4,0.8,0.8,0.8h1.1C2.6,1.9,3,2.3,3,2.7l0.8,4.7l1.4,10c0.1,1.2,1.2,2.1,2.4,2.1h13.6c0.4,0,0.8-0.4,0.8-0.8
		C22,18.2,21.6,17.9,21.2,17.9L21.2,17.9L21.2,17.9z M23,3.6c-0.4-0.5-1-0.7-1.6-0.7H7c-0.4,0-0.8,0.4-0.8,0.8
		c0,0.4,0.4,0.8,0.8,0.8h14.4c0.2,0,0.3,0.1,0.4,0.2c0.2,0.2,0.3,0.5,0.2,0.8L20.8,13c0,0.4-0.4,0.7-0.9,0.7L8.6,14.5
		c-0.2,0-0.4,0.1-0.5,0.3c-0.1,0.2-0.2,0.4-0.2,0.6c0,0.4,0.4,0.7,0.8,0.7c0,0,0,0,0.1,0L20,15.3c1.2,0,2.2-0.9,2.4-2.1l1.3-7.5
		C23.7,4.9,23.5,4.1,23,3.6L23,3.6L23,3.6z M7.8,23.6c0.9,0,1.6-0.7,1.6-1.6s-0.7-1.6-1.6-1.6S6.2,21.1,6.2,22
		C6.2,22.9,6.9,23.6,7.8,23.6L7.8,23.6L7.8,23.6z M19.5,23.6c0.9,0,1.6-0.7,1.6-1.6s-0.7-1.6-1.6-1.6s-1.6,0.7-1.6,1.6
		C17.9,22.9,18.6,23.6,19.5,23.6L19.5,23.6L19.5,23.6z"/>
</g>
</svg>
